<svg xmlns="http://www.w3.org/2000/svg" xmlns:xlink="http://www.w3.org/1999/xlink" version="1.1" id="Layer_1" x="0px" y="0px" viewBox="0 0 512.002 512.002" style="enable-background:new 0 0 512.002 512.002;" xml:space="preserve" width="512px" height="512px">
  <g>
    <g>
      <g>
        <path d="M179.254,104.389c9.616-13.957,22.529-25.637,37.34-33.775c2.215-1.219,3.727-3.411,4.079-5.914     c0.352-2.504-0.499-5.026-2.294-6.807L191.67,31.401c-3.017-2.992-7.019-4.639-11.333-4.639     c-2.474,0.011-7.233,0.639-11.295,4.734c-4.06,4.096-4.651,8.858-4.641,11.334l0.232,57.041c0.014,3.505,2.303,6.595,5.652,7.63     c0.782,0.242,1.578,0.358,2.366,0.358C175.238,107.858,177.729,106.601,179.254,104.389z M199.806,62.059     c-6.911,4.611-13.37,9.917-19.248,15.806l-0.181-35.077L199.806,62.059z" fill="#FFFFFF" />
        <path d="M320.659,70.613c14.811,8.139,27.724,19.818,37.34,33.775c1.525,2.212,4.015,3.469,6.603,3.469     c0.788,0,1.585-0.117,2.366-0.358c3.349-1.035,5.638-4.124,5.652-7.63l0.232-57.043c0.01-2.474-0.581-7.236-4.643-11.334     c-4.06-4.093-8.819-4.721-11.359-4.732c-4.249,0-8.251,1.648-11.269,4.64l-26.707,26.49c-1.795,1.781-2.645,4.303-2.294,6.807     C316.931,67.203,318.443,69.395,320.659,70.613z M356.815,42.764l-0.143,35.077c-5.877-5.883-12.331-11.184-19.24-15.791     L356.815,42.764z" fill="#FFFFFF" />
        <path d="M431.854,462.431c2.588-7.592,3.93-15.614,3.93-23.69c0-16.698-5.769-33.036-16.243-46.003     c-8.997-11.138-21.139-19.427-34.659-23.77v-67.369c0-15.258-2.925-30.068-8.701-44.083     c11.621-19.451,17.695-41.638,17.602-64.419l-0.001-27.24l0.001-0.308l-0.531-130.165c-0.041-9.497-3.774-18.406-10.512-25.091     c-13.915-13.803-36.466-13.712-50.269,0.201l-33.954,34.232c-9.819-2.389-19.92-3.583-30.106-3.535     c-10.18,0.042-20.274,1.312-30.075,3.781l-34.233-33.955c-13.915-13.8-36.464-13.709-50.265,0.204     c-6.645,6.697-10.303,15.57-10.31,25c-0.001,0.06-0.002,0.119-0.002,0.179l0.53,130.131v26.565c0,0.096,0.001,0.191,0.005,0.286     l-0.001,0.012c-0.003,0.231-0.005,0.462-0.004,0.688c0.091,22.388,6.129,44.169,17.501,63.274     c-5.818,14.06-8.766,28.922-8.766,44.244v19.176l-48.857-48.856c-3.132-3.131-8.209-3.131-11.341,0     c-43.15,43.151-43.151,113.363,0,156.516l9.518,9.517c-0.003,0.264-0.017,0.526-0.017,0.79c0,8.077,1.342,16.099,3.93,23.69     C94.668,464.808,86.11,474.9,86.11,486.953v9.343c0,8.66,7.046,15.706,15.706,15.706h334.249c8.66,0,15.706-7.046,15.706-15.706     v-9.343C451.77,474.899,443.212,464.806,431.854,462.431z M160.094,194.009l0.009-0.886c0.001-0.13-0.002-0.261-0.009-0.391     V166.5l-0.529-130.006c0.001-0.053,0.001-0.106,0.001-0.158c-0.02-5.212,1.989-10.119,5.658-13.817     c7.573-7.638,19.95-7.688,27.586-0.112l37.519,37.214c2.074,2.057,5.101,2.822,7.904,2.001c9.789-2.872,19.965-4.348,30.245-4.39     c10.304-0.04,20.471,1.354,30.28,4.143c2.809,0.798,5.831,0.009,7.887-2.067l37.213-37.518     c7.575-7.636,19.951-7.686,27.588-0.111c3.697,3.668,5.747,8.559,5.77,13.77l0.53,130.188c0,0.094-0.001,0.188,0,0.281v27.212     c0.087,21.149-5.906,41.68-17.328,59.374c-1.482,2.294-1.693,5.188-0.559,7.675c5.964,13.083,8.988,27.018,8.988,41.421v154.104     c0,2.085-0.167,4.156-0.486,6.2h-5.992V348.776c0-20.154-16.396-36.55-36.55-36.55c-4.331,0-8.487,0.761-12.347,2.151     c-6.209-5.724-13.486-10.266-21.362-13.237c-1.344-0.508-2.8-0.645-4.217-0.394c-6.103,1.072-12.335,1.627-18.528,1.653     c-6.48,0.051-13.032-0.526-19.4-1.644c-1.418-0.249-2.875-0.111-4.22,0.396c-7.866,2.971-15.134,7.51-21.336,13.228     c-3.859-1.39-8.016-2.152-12.347-2.152c-20.154,0-36.55,16.396-36.55,36.55v113.127h-6.195c-0.32-2.044-0.487-4.115-0.487-6.2     V301.598c0-14.457,3.044-28.439,9.047-41.556c1.138-2.485,0.931-5.378-0.548-7.677     C166.139,234.974,160.179,214.798,160.094,194.009z M346.329,348.776v81.948h-41.024v-81.948c0-11.31,9.201-20.512,20.512-20.512     C337.128,328.264,346.329,337.466,346.329,348.776z M105.054,418.213l-1.119-1.121c-34.988-34.99-36.798-90.784-5.431-127.927     l54.29,54.289v25.581c-13.437,4.362-25.503,12.621-34.454,23.702C112.241,400.285,107.752,408.975,105.054,418.213z      M102.147,495.961v-9.01c0-4.968,4.043-9.011,9.011-9.011h3.766c5.776,4.557,9.726,10.936,11.272,18.021H102.147z      M136.321,478.449c-3.005-5.071-6.954-9.599-11.716-13.303c-4.224-8.101-6.473-17.201-6.473-26.406     c0-23.387,13.834-43.784,34.66-52.624v69.586c0,2.381,0.159,4.75,0.458,7.098C145.394,464.96,139.07,470.854,136.321,478.449z      M232.573,486.951c0,4.969-4.042,9.011-9.009,9.011H150.87v-9.011c0-4.968,4.042-9.011,9.009-9.011h23.65     c4.429,0,8.019-3.589,8.019-8.019v-23.16h41.025V486.951z M232.573,430.723h-41.024v-81.948c0-11.31,9.201-20.512,20.512-20.512     c11.311,0,20.512,9.201,20.512,20.512V430.723z M290.95,495.962h-44.023c1.083-2.798,1.683-5.835,1.683-9.011V348.776     c0-9.808-3.891-18.719-10.2-25.289c3.396-2.651,7.12-4.868,11.069-6.556c6.572,1.027,13.276,1.562,19.949,1.506     c6.325-0.025,12.688-0.535,18.949-1.515c3.957,1.688,7.688,3.91,11.09,6.565c-6.309,6.571-10.2,15.482-10.2,25.289v138.175     C289.267,490.127,289.868,493.164,290.95,495.962z M387.007,495.962h-72.694c-4.967,0-9.009-4.042-9.009-9.011v-40.189h41.024     v23.16c0,4.43,3.59,8.019,8.019,8.019h23.65c4.969,0,9.009,4.042,9.009,9.011V495.962z M401.558,478.449     c-2.772-7.66-9.178-13.59-17.125-15.705c0.294-2.329,0.45-4.679,0.45-7.042v-69.674c20.94,8.792,34.863,29.247,34.863,52.713     c0,9.205-2.25,18.304-6.473,26.406C408.511,468.85,404.563,473.378,401.558,478.449z M435.732,495.962h-24.049     c1.545-7.086,5.497-13.465,11.271-18.021h3.767c4.968,0,9.011,4.042,9.011,9.011V495.962z" fill="#FFFFFF" />
        <path d="M253.654,188.548c4.261,4.081,9.871,6.33,15.795,6.33c6.216,0,12.234-2.565,16.51-7.037l5.347-5.591     c7.12-7.435,5.5-13.833,4.472-16.239c-1.024-2.4-4.515-7.985-14.76-7.985h-0.115l-24.187,0.099     c-10.405,0.043-13.777,5.681-14.745,8.103c-0.967,2.422-2.405,8.832,5.112,16.029L253.654,188.548z M276.927,174.081     l-2.559,2.675c-1.284,1.344-3.031,2.084-4.919,2.084c-1.772,0-3.441-0.666-4.703-1.875l-2.949-2.823L276.927,174.081z" fill="#FFFFFF" />
        <circle cx="213.013" cy="149.711" r="8.832" fill="#FFFFFF" />
        <path d="M236.724,267.436c7.836,10.172,19.668,16.001,32.5,16.001h0.174c12.902-0.052,24.748-5.977,32.543-16.264l50.501-60.032     c9.54-11.31,14.761-25.685,14.7-40.476l-0.073-17.976c-0.14-34.281-28.141-62.17-62.419-62.17h-0.261     c-5.03,0.021-9.964,0.631-14.759,1.82c-0.544-11.12-9.783-20.012-21.106-20.012c-5.623,0.021-10.9,2.231-14.859,6.224     c-3.736,3.767-5.877,8.692-6.088,13.959c-4.723-1.131-9.575-1.7-14.515-1.7h-0.259c-16.674,0.067-32.323,6.625-44.066,18.464     c-11.743,11.838-18.173,27.542-18.104,44.215l0.073,17.976c0.061,14.79,5.398,29.121,15.023,40.348L236.724,267.436z      M200.124,116.566c8.726-8.797,20.355-13.669,32.745-13.72h0.194c6.691,0,13.159,1.404,19.227,4.176     c2.487,1.134,5.382,0.925,7.68-0.557c2.298-1.483,3.681-4.034,3.671-6.77l-0.042-10.304c-0.005-1.338,0.51-2.598,1.453-3.548     c0.942-0.951,2.197-1.475,3.563-1.481c2.748,0,4.993,2.239,5.005,4.989l0.042,10.303c0.011,2.735,1.416,5.276,3.725,6.74     c2.311,1.464,5.207,1.651,7.685,0.495c6.103-2.848,12.625-4.306,19.385-4.334h0.196c25.47,0,46.277,20.724,46.381,46.197     l0.073,17.976c0.045,10.988-3.834,21.668-10.928,30.079l-50.647,60.207c-0.097,0.115-0.191,0.235-0.282,0.356     c-4.749,6.342-12.008,9.997-19.916,10.03h-0.107c-7.863,0-15.112-3.598-19.888-9.87c-0.092-0.12-0.187-0.238-0.286-0.354     l-51.141-59.796c-7.156-8.347-11.123-18.994-11.168-29.981l-0.073-17.976C186.62,137.032,191.399,125.363,200.124,116.566z" fill="#FFFFFF" />
        <path d="M287.134,212.556c-4.828-0.83-9.367-2.947-13.124-6.119c-2.987-2.52-7.358-2.521-10.345,0.001     c-3.757,3.171-8.295,5.287-13.123,6.118c-3.848,0.662-6.66,3.999-6.66,7.903v15.894c0,13.761,11.195,24.957,24.956,24.957     c13.761,0,24.957-11.195,24.957-24.957v-15.894C293.794,216.555,290.982,213.218,287.134,212.556z M277.756,236.353     c0,4.918-4.001,8.919-8.919,8.919c-4.918,0-8.918-4.001-8.918-8.919v-9.69c3.12-1.063,6.112-2.477,8.918-4.216     c2.806,1.739,5.799,3.153,8.919,4.216V236.353z" fill="#FFFFFF" />
        <circle cx="324.662" cy="149.711" r="8.832" fill="#FFFFFF" />
      </g>
    </g>
  </g>
</svg>
