<svg xmlns="http://www.w3.org/2000/svg" xmlns:xlink="http://www.w3.org/1999/xlink" version="1.1" id="Capa_1" x="0px" y="0px" viewBox="0 0 470 470" xml:space="preserve" width="82px" height="82px">
  <g>
    <path d="M401.17,68.83C356.784,24.444,297.771,0,235,0C172.229,0,113.215,24.444,68.83,68.83C24.444,113.215,0,172.229,0,235   s24.444,121.785,68.83,166.17C113.215,445.556,172.229,470,235,470c62.771,0,121.784-24.444,166.17-68.83   C445.556,356.785,470,297.771,470,235S445.556,113.215,401.17,68.83z M235,455c-121.309,0-220-98.691-220-220S113.691,15,235,15   s220,98.691,220,220S356.309,455,235,455z" fill="#FFFFFF" />
    <path d="M210.351,145.51c1.182,0.683,2.473,1.008,3.747,1.008c2.59,0,5.11-1.344,6.5-3.748l9.98-17.263l14.573,10.782   c1.325,0.98,2.894,1.471,4.461,1.471s3.136-0.49,4.461-1.471l16.822-12.447l16.825,12.447c2.652,1.961,6.27,1.961,8.922,0   l14.539-10.756l8.887,15.394c2.07,3.587,6.66,4.817,10.245,2.745c3.587-2.071,4.816-6.658,2.745-10.245l-55.66-96.406   c-1.339-2.32-3.814-3.749-6.493-3.75c-2.68,0-5.154,1.428-6.495,3.746l-56.799,98.246   C205.538,138.849,206.765,143.437,210.351,145.51z M270.899,55.764l32.733,56.696l-11.452,8.472l-16.825-12.447   c-2.652-1.961-6.271-1.961-8.922,0l-16.822,12.447l-11.478-8.492L270.899,55.764z" fill="#FFFFFF" />
    <path d="M51.09,211.493c1.182,0.683,2.473,1.008,3.747,1.008c2.59,0,5.11-1.344,6.5-3.748l34.594-59.838l14.572,10.781   c2.65,1.961,6.271,1.961,8.922,0l16.823-12.447l16.825,12.447c1.325,0.98,2.893,1.471,4.46,1.471c1.567,0,3.135-0.49,4.46-1.471   l14.54-10.756l22.42,38.833c2.071,3.588,6.659,4.817,10.245,2.745c3.587-2.071,4.816-6.658,2.745-10.245L142.751,60.429   c-1.339-2.32-3.814-3.749-6.493-3.75c-2.68,0-5.155,1.428-6.496,3.746l-81.413,140.82C46.278,204.832,47.504,209.419,51.09,211.493   z M136.252,79.172l32.733,56.695l-11.452,8.472l-16.826-12.447c-2.65-1.961-6.271-1.961-8.921,0l-16.822,12.447l-11.477-8.492   L136.252,79.172z" fill="#FFFFFF" />
    <path d="M399.806,257.5h-239.61c-4.142,0-7.5,3.358-7.5,7.5s3.358,7.5,7.5,7.5h239.61c4.143,0,7.5-3.358,7.5-7.5   S403.948,257.5,399.806,257.5z" fill="#FFFFFF" />
    <path d="M130.195,257.5h-60c-4.142,0-7.5,3.358-7.5,7.5s3.358,7.5,7.5,7.5h60c4.142,0,7.5-3.358,7.5-7.5   S134.337,257.5,130.195,257.5z" fill="#FFFFFF" />
    <path d="M391.384,287.5H281.333c-4.143,0-7.5,3.358-7.5,7.5s3.357,7.5,7.5,7.5h110.051c4.143,0,7.5-3.358,7.5-7.5   S395.526,287.5,391.384,287.5z" fill="#FFFFFF" />
    <path d="M376.211,317.5h-54.878c-4.143,0-7.5,3.358-7.5,7.5s3.357,7.5,7.5,7.5h54.878c4.143,0,7.5-3.358,7.5-7.5   S380.354,317.5,376.211,317.5z" fill="#FFFFFF" />
    <path d="M427.543,164.595c-1.083-2.954-3.895-4.917-7.041-4.917H254.655c-2.406,0-4.667,1.155-6.077,3.104L201.767,227.5H37.5   c-4.142,0-7.5,3.358-7.5,7.5c0,21.352,3.308,42.302,9.66,62.221c9.115,28.569,24.48,54.991,45.382,77.422   c35.311,37.894,83.039,60.897,134.394,64.771c0.192,0.015,0.383,0.022,0.572,0.022c3.886,0,7.174-2.998,7.471-6.936   c0.312-4.13-2.784-7.731-6.914-8.043C145.7,418.809,83.173,369.332,57.511,302.5H213.75c4.135,0,7.5,3.364,7.5,7.5   s-3.365,7.5-7.5,7.5h-55c-12.407,0-22.5,10.093-22.5,22.5s10.093,22.5,22.5,22.5h216.742   c-31.68,34.913-76.119,58.19-126.056,61.958c-4.13,0.312-7.226,3.913-6.914,8.043c0.297,3.938,3.585,6.936,7.471,6.936   c0.189,0,0.38-0.007,0.572-0.022c51.354-3.875,99.083-26.877,134.394-64.771C420.452,336.552,440,286.959,440,235   C440,210.819,435.809,187.131,427.543,164.595z M258.486,174.677h30.577v22.5c0,4.142,3.357,7.5,7.5,7.5s7.5-3.358,7.5-7.5v-22.5   h75v12.5c0,4.142,3.357,7.5,7.5,7.5s7.5-3.358,7.5-7.5v-12.5h21.124c5.724,17.043,8.963,34.759,9.665,52.823h-90.789v-30.323   c0-4.142-3.357-7.5-7.5-7.5s-7.5,3.358-7.5,7.5V227.5H220.28L258.486,174.677z M158.75,347.5c-4.136,0-7.5-3.364-7.5-7.5   s3.364-7.5,7.5-7.5h55c12.407,0,22.5-10.093,22.5-22.5s-10.093-22.5-22.5-22.5H52.472c-4.187-14.413-6.709-29.49-7.323-45h379.69   c-1.545,38.971-15.056,75.234-37.042,105H158.75z" fill="#FFFFFF" />
  </g>
</svg>
